<svg xmlns="http://www.w3.org/2000/svg" version="1.1" xmlns:xlink="http://www.w3.org/1999/xlink" xmlns:svgjs="http://svgjs.dev/svgjs" width="1000" height="154" viewBox="0 0 1000 154"><g transform="matrix(1,0,0,1,-0.6060466970398579,0.3668866015722614)"><svg viewBox="0 0 396 61" data-background-color="#ffffff" preserveAspectRatio="xMidYMid meet" height="154" width="1000" xmlns="http://www.w3.org/2000/svg" xmlns:xlink="http://www.w3.org/1999/xlink"><g id="tight-bounds" transform="matrix(1,0,0,1,0.23999449202779033,-0.14532521231109286)"><svg viewBox="0 0 395.52 61.2906504246222" height="61.2906504246222" width="395.52"><rect width="395.5199890136719" height="61.2906494140625" fill="url(#2f3b9f5f-7f56-4fae-96e1-5648b628e419)" mask="url(&quot;#71496323-0235-44b0-b474-8f45108a0c1f&quot;)" data-fill-palette-color="accent"></rect><g><svg viewBox="0 0 483.1859520623065 74.87555946080879" height="61.2906504246222" width="395.52"><g transform="matrix(1,0,0,1,87.66595206230654,10.348214078881682)"><svg viewBox="0 0 395.52 54.17913130304542" height="54.17913130304542" width="395.52"><g id="textblocktransform"><svg viewBox="0 0 395.52 54.17913130304542" height="54.17913130304542" width="395.52" id="textblock"><g><svg viewBox="0 0 395.52 54.17913130304542" height="54.17913130304542" width="395.52"><g transform="matrix(1,0,0,1,0,0)"><svg width="395.52" viewBox="3.1600000858306885 -38.439998626708984 284.489990234375 38.96999740600586" height="54.17913130304542" data-palette-color="#001f3f"><path d="M18.7 0L3.16 0 3.16-36.36 17.72-36.36Q21.73-36.36 24.41-35.17 27.1-33.98 28.44-31.88 29.79-29.78 29.79-27.04L29.79-27.04Q29.79-24.91 28.94-23.3 28.09-21.7 26.61-20.68 25.12-19.66 23.22-19.23L23.22-19.23 23.22-18.87Q25.3-18.79 27.12-17.7 28.94-16.62 30.08-14.68 31.21-12.73 31.21-10.05L31.21-10.05Q31.21-7.16 29.79-4.89 28.36-2.63 25.57-1.31 22.78 0 18.7 0L18.7 0ZM10.85-15.94L10.85-6.29 17.12-6.29Q20.33-6.29 21.8-7.52 23.28-8.75 23.28-10.81L23.28-10.81Q23.28-12.32 22.55-13.48 21.82-14.63 20.48-15.29 19.14-15.94 17.29-15.94L17.29-15.94 10.85-15.94ZM10.85-30.15L10.85-21.15 16.55-21.15Q18.13-21.15 19.36-21.71 20.6-22.27 21.32-23.3 22.03-24.33 22.03-25.76L22.03-25.76Q22.03-27.73 20.64-28.94 19.25-30.15 16.69-30.15L16.69-30.15 10.85-30.15ZM43.62 0L36.06 0 36.06-27.27 43.39-27.27 43.39-22.51 43.68-22.51Q44.42-25.05 46.18-26.36 47.94-27.66 50.23-27.66L50.23-27.66Q50.8-27.66 51.45-27.59 52.11-27.52 52.61-27.4L52.61-27.4 52.61-20.69Q52.07-20.85 51.13-20.97 50.19-21.09 49.41-21.09L49.41-21.09Q47.74-21.09 46.44-20.37 45.13-19.66 44.38-18.38 43.62-17.1 43.62-15.43L43.62-15.43 43.62 0ZM64.06 0L56.49 0 56.49-27.27 64.06-27.27 64.06 0ZM60.31-30.79L60.31-30.79Q58.62-30.79 57.42-31.92 56.21-33.04 56.21-34.62L56.21-34.62Q56.21-36.19 57.42-37.31 58.62-38.44 60.29-38.44L60.29-38.44Q62-38.44 63.2-37.31 64.39-36.19 64.39-34.62L64.39-34.62Q64.39-33.04 63.2-31.92 62-30.79 60.31-30.79ZM82.52 0.53L82.52 0.53Q78.31 0.53 75.29-1.18 72.26-2.89 70.62-6.05 68.99-9.2 68.99-13.51L68.99-13.51Q68.99-17.72 70.62-20.9 72.26-24.08 75.23-25.85 78.21-27.63 82.22-27.63L82.22-27.63Q84.92-27.63 87.25-26.77 89.59-25.91 91.34-24.18 93.09-22.46 94.06-19.86 95.04-17.26 95.04-13.78L95.04-13.78 95.04-11.7 72.01-11.7 72.01-16.39 87.92-16.39Q87.92-18.02 87.21-19.28 86.5-20.54 85.25-21.26 83.99-21.98 82.34-21.98L82.34-21.98Q80.62-21.98 79.3-21.19 77.98-20.4 77.23-19.08 76.48-17.76 76.47-16.14L76.47-16.14 76.47-11.68Q76.47-9.66 77.22-8.19 77.98-6.71 79.36-5.91 80.75-5.11 82.65-5.11L82.65-5.11Q83.91-5.11 84.95-5.47 86-5.82 86.75-6.53 87.49-7.24 87.88-8.27L87.88-8.27 94.88-7.81Q94.35-5.29 92.7-3.42 91.06-1.54 88.48-0.51 85.89 0.53 82.52 0.53ZM97.81-27.27L114.64-27.27 114.64-21.59 97.81-21.59 97.81-27.27ZM109.21 0L101.66 0 101.66-29.24Q101.66-32.21 102.82-34.16 103.99-36.12 106.01-37.09 108.03-38.07 110.61-38.07L110.61-38.07Q112.35-38.07 113.8-37.8 115.24-37.54 115.95-37.32L115.95-37.32 114.6-31.64Q114.16-31.78 113.51-31.91 112.86-32.03 112.19-32.03L112.19-32.03Q110.52-32.03 109.86-31.26 109.21-30.49 109.21-29.1L109.21-29.1 109.21 0ZM119.39 0L119.39-36.36 128.88-36.36 138.89-11.93 139.32-11.93 149.33-36.36 158.81-36.36 158.81 0 151.35 0 151.35-23.67 151.05-23.67 141.64-0.18 136.56-0.18 127.15-23.76 126.85-23.76 126.85 0 119.39 0ZM172.77 0.51L172.77 0.51Q170.16 0.51 168.11-0.4 166.07-1.31 164.89-3.12 163.71-4.92 163.71-7.62L163.71-7.62Q163.71-9.89 164.54-11.43 165.38-12.98 166.82-13.92 168.26-14.86 170.09-15.34 171.93-15.82 173.96-16.02L173.96-16.02Q176.33-16.26 177.79-16.49 179.25-16.71 179.9-17.15 180.56-17.6 180.56-18.47L180.56-18.47 180.56-18.57Q180.56-20.26 179.5-21.18 178.45-22.11 176.51-22.11L176.51-22.11Q174.47-22.11 173.26-21.21 172.06-20.31 171.66-18.96L171.66-18.96 164.67-19.53Q165.2-22.02 166.76-23.84 168.33-25.66 170.8-26.64 173.28-27.63 176.55-27.63L176.55-27.63Q178.82-27.63 180.91-27.1 182.99-26.56 184.62-25.44 186.24-24.33 187.18-22.58 188.12-20.83 188.12-18.39L188.12-18.39 188.12 0 180.95 0 180.95-3.78 180.74-3.78Q180.08-2.5 178.98-1.54 177.88-0.57 176.33-0.03 174.79 0.51 172.77 0.51ZM174.93-4.71L174.93-4.71Q176.6-4.71 177.88-5.37 179.16-6.04 179.89-7.17 180.61-8.31 180.61-9.75L180.61-9.75 180.61-12.64Q180.26-12.41 179.65-12.22 179.03-12.04 178.27-11.89 177.51-11.74 176.74-11.62 175.98-11.51 175.36-11.42L175.36-11.42Q174.03-11.22 173.03-10.8 172.04-10.37 171.49-9.65 170.94-8.93 170.94-7.87L170.94-7.87Q170.94-6.32 172.06-5.51 173.19-4.71 174.93-4.71ZM216.69-19.5L216.69-19.5 209.77-19.07Q209.59-19.96 209-20.68 208.42-21.4 207.47-21.83 206.52-22.27 205.2-22.27L205.2-22.27Q203.44-22.27 202.24-21.53 201.03-20.79 201.03-19.57L201.03-19.57Q201.03-18.59 201.81-17.92 202.59-17.24 204.49-16.83L204.49-16.83 209.43-15.84Q213.41-15.02 215.36-13.21 217.31-11.4 217.31-8.45L217.31-8.45Q217.31-5.77 215.74-3.75 214.17-1.72 211.44-0.59 208.72 0.53 205.17 0.53L205.17 0.53Q199.75 0.53 196.55-1.73 193.34-4 192.79-7.9L192.79-7.9 200.23-8.29Q200.57-6.64 201.86-5.78 203.16-4.92 205.18-4.92L205.18-4.92Q207.17-4.92 208.39-5.69 209.61-6.46 209.62-7.69L209.62-7.69Q209.61-8.72 208.75-9.38 207.9-10.05 206.13-10.4L206.13-10.4 201.4-11.35Q197.41-12.14 195.46-14.12 193.52-16.09 193.52-19.14L193.52-19.14Q193.52-21.77 194.95-23.67 196.38-25.57 198.98-26.6 201.58-27.63 205.08-27.63L205.08-27.63Q210.25-27.63 213.22-25.44 216.19-23.26 216.69-19.5ZM220.17-27.27L236.59-27.27 236.59-21.59 220.17-21.59 220.17-27.27ZM223.9-7.39L223.9-33.81 231.46-33.81 231.46-8.38Q231.46-7.33 231.78-6.76 232.1-6.18 232.68-5.95 233.25-5.72 234.02-5.72L234.02-5.72Q234.55-5.72 235.08-5.81 235.62-5.91 235.9-5.97L235.9-5.97 237.09-0.34Q236.52-0.16 235.49 0.08 234.46 0.32 232.99 0.37L232.99 0.37Q230.25 0.48 228.2-0.36 226.15-1.19 225.02-2.95 223.88-4.71 223.9-7.39L223.9-7.39ZM253.65 0.53L253.65 0.53Q249.44 0.53 246.42-1.18 243.39-2.89 241.76-6.05 240.12-9.2 240.12-13.51L240.12-13.51Q240.12-17.72 241.76-20.9 243.39-24.08 246.36-25.85 249.34-27.63 253.35-27.63L253.35-27.63Q256.05-27.63 258.38-26.77 260.72-25.91 262.47-24.18 264.22-22.46 265.19-19.86 266.17-17.26 266.17-13.78L266.17-13.78 266.17-11.7 243.14-11.7 243.14-16.39 259.05-16.39Q259.05-18.02 258.34-19.28 257.63-20.54 256.38-21.26 255.13-21.98 253.48-21.98L253.48-21.98Q251.75-21.98 250.43-21.19 249.11-20.4 248.36-19.08 247.62-17.76 247.6-16.14L247.6-16.14 247.6-11.68Q247.6-9.66 248.35-8.19 249.11-6.71 250.49-5.91 251.88-5.11 253.78-5.11L253.78-5.11Q255.04-5.11 256.09-5.47 257.13-5.82 257.88-6.53 258.62-7.24 259.02-8.27L259.02-8.27 266.01-7.81Q265.48-5.29 263.84-3.42 262.19-1.54 259.61-0.51 257.03 0.53 253.65 0.53ZM278.67 0L271.1 0 271.1-27.27 278.44-27.27 278.44-22.51 278.72-22.51Q279.47-25.05 281.23-26.36 282.98-27.66 285.27-27.66L285.27-27.66Q285.84-27.66 286.5-27.59 287.16-27.52 287.65-27.4L287.65-27.4 287.65-20.69Q287.12-20.85 286.18-20.97 285.24-21.09 284.46-21.09L284.46-21.09Q282.79-21.09 281.48-20.37 280.18-19.66 279.42-18.38 278.67-17.1 278.67-15.43L278.67-15.43 278.67 0Z" opacity="1" transform="matrix(1,0,0,1,0,0)" fill="#001f3f" class="undefined-text-0" data-fill-palette-color="primary" id="text-0"></path></svg></g></svg></g></svg></g></svg></g><g><svg viewBox="0 0 74.87555946080879 74.87555946080879" height="74.87555946080879" width="74.87555946080879"><g><svg xmlns="http://www.w3.org/2000/svg" xmlns:xlink="http://www.w3.org/1999/xlink" version="1.1" x="0" y="0" viewBox="1 1 62 62" style="enable-background:new 0 0 64 64;" xml:space="preserve" height="74.87555946080879" width="74.87555946080879" class="icon-icon-0" data-fill-palette-color="accent" id="icon-0"></svg></g></svg></g></svg></g><defs></defs><mask id="71496323-0235-44b0-b474-8f45108a0c1f"><g id="SvgjsG4429"><svg viewBox="0 0 395.52 61.2906504246222" height="61.2906504246222" width="395.52"><g><svg viewBox="0 0 483.1859520623065 74.87555946080879" height="61.2906504246222" width="395.52"><g transform="matrix(1,0,0,1,87.66595206230654,10.348214078881682)"><svg viewBox="0 0 395.52 54.17913130304542" height="54.17913130304542" width="395.52"><g id="SvgjsG4428"><svg viewBox="0 0 395.52 54.17913130304542" height="54.17913130304542" width="395.52" id="SvgjsSvg4427"><g><svg viewBox="0 0 395.52 54.17913130304542" height="54.17913130304542" width="395.52"><g transform="matrix(1,0,0,1,0,0)"><svg width="395.52" viewBox="3.1600000858306885 -38.439998626708984 284.489990234375 38.96999740600586" height="54.17913130304542" data-palette-color="#001f3f"></svg></g></svg></g></svg></g></svg></g><g><svg viewBox="0 0 74.87555946080879 74.87555946080879" height="74.87555946080879" width="74.87555946080879"><g><svg xmlns="http://www.w3.org/2000/svg" xmlns:xlink="http://www.w3.org/1999/xlink" version="1.1" x="0" y="0" viewBox="1 1 62 62" style="enable-background:new 0 0 64 64;" xml:space="preserve" height="74.87555946080879" width="74.87555946080879" class="icon-icon-0" data-fill-palette-color="accent" id="SvgjsSvg4425"><g fill="white"><path d="M63 31c0-2.305-0.892-4.51-2.461-6.175C60.834 23.936 61 22.987 61 22c0-4.444-3.26-8.214-7.621-8.886-0.825-1.833-2.418-3.251-4.415-3.829C48.597 4.656 44.721 1 40 1c-2.826 0-5.349 1.312-7 3.356V1h-7.78l-1.596 6.382c-1.049 0.357-2.089 0.79-3.104 1.291l-5.646-3.388-9.589 9.59 3.388 5.646c-0.5 1.012-0.933 2.052-1.291 3.103L1 25.219v13.562l6.382 1.596c0.418 1.226 0.937 2.436 1.546 3.605l1.773-0.924c-0.644-1.236-1.178-2.521-1.587-3.819l-0.169-0.534L3 37.219V26.781l5.945-1.486 0.169-0.534c0.409-1.297 0.943-2.583 1.587-3.819l0.259-0.497-3.157-5.261 7.382-7.381 5.26 3.157 0.496-0.258c1.241-0.646 2.527-1.18 3.82-1.588l0.534-0.168L26.781 3H31v14.051C23.195 17.569 17 24.067 17 32s6.195 14.431 14 14.949V61h-4.219l-1.486-5.945-0.534-0.168c-1.293-0.409-2.579-0.943-3.82-1.588l-0.496-0.258-5.26 3.157-7.934-7.933-1.414 1.414 9.037 9.038 5.646-3.388c1.015 0.501 2.055 0.934 3.104 1.291L25.22 63H33v-2.726C34.467 61.941 36.61 63 39 63c2.956 0 5.536-1.615 6.921-4.006C45.947 58.995 45.974 59 46 59c4.346 0 7.886-3.485 7.99-7.806 1.387-0.802 2.421-2.14 2.822-3.732C59.886 46.299 62 43.322 62 40c0-1.235-0.289-2.452-0.842-3.558C62.351 34.877 63 32.971 63 31zM19 32c0-6.831 5.299-12.435 12-12.949v25.899C24.299 44.435 19 38.831 19 32zM59.103 36.856C59.689 37.808 60 38.895 60 40c0 2.179-1.215 4.158-3.058 5.208C56.552 42.273 54.039 40 51 40v2c2.206 0 4 1.794 4 4s-1.794 4-4 4-4-1.794-4-4h-2c0 3.309 2.691 6 6 6 0.314 0 0.62-0.032 0.922-0.078-0.408 2.627-2.521 4.693-5.172 5.026C46.907 56.323 47 55.673 47 55c0-4.411-3.589-8-8-8v2c3.309 0 6 2.691 6 6s-2.691 6-6 6-6-2.691-6-6V10c0-3.86 3.141-7 7-7s7 3.14 7 7-3.141 7-7 7v2c4.493 0 8.216-3.313 8.883-7.621C50.735 12.128 52 13.922 52 16c0 2.757-2.243 5-5 5v2c3.859 0 7-3.14 7-7 0-0.242-0.015-0.48-0.039-0.716C56.897 16.14 59 18.852 59 22c0 3.86-3.141 7-7 7v2c3.196 0 6.001-1.68 7.598-4.197C60.499 28.005 61 29.475 61 31c0 1.718-0.637 3.374-1.792 4.664L58.71 36.22 59.103 36.856z" fill="white"></path><rect x="37" y="54" width="2" height="2" fill="white"></rect><rect x="42" y="31" width="2" height="2" fill="white"></rect><rect x="36" y="9" width="2" height="2" fill="white"></rect><rect x="53" y="24" width="2" height="2" fill="white"></rect><rect x="35" y="38" width="2" height="2" fill="white"></rect><rect x="54" y="36" width="2" height="2" fill="white"></rect><path d="M28.843 51.729l0.314-1.976c-4.727-0.751-9.037-3.424-11.827-7.333l-1.627 1.162C18.802 47.924 23.591 50.893 28.843 51.729z" fill="white"></path><path d="M29.157 14.247l-0.314-1.976C19.083 13.824 12 22.121 12 32c0 3.308 0.825 6.583 2.387 9.473l1.76-0.951C14.742 37.924 14 34.977 14 32 14 23.11 20.374 15.644 29.157 14.247z" fill="white"></path></g></svg></g></svg></g></svg></g><defs><mask></mask></defs></svg></g></mask><linearGradient x1="0" x2="1" y1="0.5" y2="0.5" id="2f3b9f5f-7f56-4fae-96e1-5648b628e419"><stop stop-color="#ffa62e" offset="0"></stop><stop stop-color="#f71b3d" offset="1"></stop></linearGradient></svg><rect width="395.52" height="61.2906504246222" fill="none" stroke="none" visibility="hidden"></rect></g></svg></g></svg>